<svg width="24" height="24" viewBox="0 0 24 24" fill="none" xmlns="http://www.w3.org/2000/svg">
<g clip-path="url(#clip0_324_2452)">
<path d="M12.0001 0.0500488C5.37268 0.0500488 0 5.42273 0 12.0501C0 17.9941 4.32626 22.9167 9.9987 23.87V14.5537H7.10393V11.2011H9.9987V8.72906C9.9987 5.86077 11.7506 4.29772 14.3096 4.29772C15.5353 4.29772 16.5886 4.38905 16.8944 4.42928V7.4274L15.1194 7.42826C13.728 7.42826 13.4598 8.08932 13.4598 9.05973V11.1994H16.7798L16.3468 14.5519H13.4598V23.9501C19.397 23.2275 24 18.1795 24 12.0467C24 5.42273 18.6273 0.0500488 12.0001 0.0500488Z" fill="#6D6D6D"/>
</g>
<defs>
<clipPath id="clip0_324_2452">
<rect width="24" height="24" fill="white"/>
</clipPath>
</defs>
</svg>
