<svg width="27" height="24" viewBox="0 0 27 24" fill="none" xmlns="http://www.w3.org/2000/svg">
<g clip-path="url(#clip0_323_920)">
<path d="M20.6998 11H19.834L19.5271 10.73C20.6011 9.59 21.2478 8.11 21.2478 6.5C21.2478 2.91 18.0585 0 14.1239 0C10.1893 0 7 2.91 7 6.5C7 10.09 10.1893 13 14.1239 13C15.8884 13 17.5105 12.41 18.7599 11.43L19.0558 11.71V12.5L24.5357 17.49L26.1687 16L20.6998 11ZM14.1239 11C11.3949 11 9.19196 8.99 9.19196 6.5C9.19196 4.01 11.3949 2 14.1239 2C16.8529 2 19.0558 4.01 19.0558 6.5C19.0558 8.99 16.8529 11 14.1239 11Z" fill="#111111"/>
</g>
<defs>
<clipPath id="clip0_323_920">
<rect width="26.3036" height="24" fill="white"/>
</clipPath>
</defs>
</svg>
